<svg version="1.1" id="Layer_1" xmlns="http://www.w3.org/2000/svg" x="0" y="0" viewBox="0 0 530 627.8" xml:space="preserve"><path d="M21.2 243.5C21.3 108.8 130.6-.2 265.3 0S509 109.5 508.8 244.1 399.5 487.6 265 487.6c-134.7-.1-243.9-109.3-243.8-244.1zM260 327c-18.9.6-37.8-1.1-56.3-5-13.7-2.8-25.1-12-30.8-24.8-5.5-12.7-8.2-32.3-8-58.8.1-13.8 1-27.7 2.6-41.4 1.6-13.4 3.2-24.4 4.8-33.1l1.7-8.6v-.8c0-2.4-1.7-4.5-4.1-4.9l-31.5-4.9h-.7c-2.3 0-4.3 1.6-4.8 3.8-.5 2-.9 3.5-1.8 8.3-1.8 9.3-3.5 18.3-5.3 31.5-1.9 14.3-3.1 28.7-3.5 43.1-.7 10.1-.7 20.1 0 30.2.7 26.7 5.3 48 13.7 63.9 8.4 16 22.7 27.4 42.8 34.4 20.1 7 48.1 10.4 84 10.3h4.5c35.9.1 63.9-3.3 84-10.3s34.3-18.5 42.8-34.4c8.4-16 13-37.3 13.8-63.9.7-10.1.7-20.1 0-30.2-.4-14.4-1.6-28.8-3.5-43.1-1.8-13-3.5-22-5.3-31.5-1-4.8-1.3-6.3-1.8-8.3-.5-2.2-2.5-3.8-4.8-3.8h-.8l-31.5 4.9c-2.4.4-4.1 2.5-4.1 4.9v.8l1.7 8.6c1.6 8.7 3.2 19.7 4.8 33.1 1.6 13.8 2.5 27.6 2.6 41.4.3 26.5-2.4 46-8 58.8-5.6 12.7-17 22-30.6 24.8-18.5 3.9-37.4 5.6-56.3 5.1L260 327zm209.1 264.8c0-21.1 6-35.9 30.4-35.9s30.4 14.8 30.4 35.9-6 35.9-30.4 35.9-30.4-14.8-30.4-35.9zm45.3 0c0-14.7-1.9-23-14.9-23s-14.9 8.4-14.9 23 1.9 23 14.9 23 14.9-8.4 14.9-23zM48 625c.4.6 1 1 1.8 1h5.7c1.1 0 2-.9 2-2v-64.4c0-1.1-.9-2-2-2H44.1c-1.1 0-2 .9-2 2v51.1c-4.8 2.7-10.3 4.1-15.9 4-7.2 0-10.8-3.2-10.8-10.1v-45c0-1.1-.9-2-2-2H2c-1.1 0-2 .9-2 2v46.3c0 13.1 6.2 21.8 23.5 21.8 7.9-.1 15.7-2.6 22.2-7.1l2 4.5.3-.1zm127.7-47.3c0-13-6.4-21.8-22.7-21.8-7.8 0-15.4 2.4-21.9 6.8-2.9-4.2-8.4-6.8-17.5-6.8-7.5.1-14.7 2.6-20.6 7.1l-2-4.5c-.4-.6-1-1-1.8-1h-5.7c-1.1 0-2 .9-2 2v64.4c0 1.1.9 2 2 2h11.3c1.1 0 2-.9 2-2v-51c4.3-2.6 9.3-4 14.4-4 6.2 0 9.7 2.3 9.7 8.8V624c0 1.1.9 2 2 2h11.3c1.1 0 2-.9 2-2v-51.1c4.3-2.7 9.3-4.1 14.4-4 6 0 9.7 2.3 9.7 8.8V624c0 1.1.9 2 2 2h11.3c1.1 0 2-.9 2-2l.1-46.3zm35 42.9c6.4 4.8 14.2 7.3 22.2 7.1 20 0 27.4-13.4 27.4-35.9s-7.4-35.9-27.4-35.9c-6.5 0-12.9 1.9-18.4 5.3v-20.7c0-1.1-.8-2-1.9-2.1h-11.5c-1.1 0-2 .9-2 2V624c0 1.1.9 2 2 2h5.7c.7 0 1.4-.4 1.8-1l2.1-4.4zm18.6-5.9c-5.2 0-10.3-1.4-14.8-4v-37.8c4.5-2.6 9.6-4 14.8-4 13.4 0 15.5 10.3 15.5 22.9s-2 22.9-15.5 22.9zm87.7-45.3c-1.8-.2-3.5-.4-5.3-.3-6.1-.3-12.2 1.2-17.5 4.1V624c0 1.1-.9 2-2 2h-11.3c-1.1 0-2-.9-2-2v-64.4c0-1.1.9-2 2-2h5.7c.7 0 1.4.4 1.8 1l2 4.5c6.2-4.7 13.8-7.2 21.6-7.1 1.8 0 3.6.2 5.4.5 1 0 1.9 1.7 1.9 2.8v8.2c0 1.1-.9 2-2 2l-.3-.1m39.2 25c-6.8.8-10.8 3.4-10.8 10.5 0 5.2 2.3 10.1 10.5 10.1 5.2 0 10.4-1.5 14.7-4.5v-17.7l-14.4 1.6zm18.2 26.2c-5.9 4.6-13.2 7.1-20.7 7.1-17.7 0-23.5-10.9-23.5-21.9 0-14.8 9.6-21.1 25.1-22.3l15.3-1.2v-3.4c0-7-3.3-9.7-13.4-9.7-6.4 0-12.7 1.1-18.7 3.1h-.6c-1.1 0-2-.9-2-2v-9.1c0-.9.5-1.6 1.3-1.9 6.8-2.3 14-3.4 21.1-3.4 22.5 0 27.6 9.8 27.6 24.4V624c0 1.1-.9 2-2 2h-5.7c-.7 0-1.4-.4-1.8-1l-2-4.4zm78-8.7h.6c1.1 0 2 .9 2 2v9.1c0 .8-.5 1.6-1.2 1.9-5.7 2-11.6 3-17.6 2.9-24.2 0-31.7-14.5-31.7-35.9s7.4-35.9 31.7-35.9c6-.2 11.9.8 17.5 2.8.8.3 1.3 1.1 1.3 1.9v9.1c0 1.1-.9 2-2 2h-.7c-4.9-1.6-10.1-2.3-15.3-2.2-13.3 0-17.1 9.1-17.1 22.3s3.8 22.3 17.1 22.3c5.2.1 10.3-.7 15.3-2.3" fill="#3544b1"/></svg>