<svg xmlns="http://www.w3.org/2000/svg" viewBox="0 0 129.92 62.21"><g id="Lager_2" data-name="Lager 2"><g id="Layer_1" data-name="Layer 1"><polygon points="62.77 0 72.19 0 69.83 4.08 67.48 8.15 62.77 16.3 53.37 16.3 55.72 12.22 58.07 8.15 61.84 1.61 54.2 1.61 45.51 16.67 50.59 24.45 67.48 24.45 76.89 8.15 86.3 24.45 76.89 24.45 72.19 32.6 53.37 32.6 48.66 24.45 43.62 16.72 53.27 0 62.77 0" style="fill:#2db3a6;fill-rule:evenodd"/><path d="M10,51.14a3.79,3.79,0,0,1-.92,2.73,3.19,3.19,0,0,1-2.42,1,3,3,0,0,1-2.35-1,4,4,0,0,1-.82-2.69V42.72H0v9.52a6.1,6.1,0,0,0,1.38,4.19A5,5,0,0,0,5.31,58a4.78,4.78,0,0,0,2.83-.79A7.39,7.39,0,0,0,10,55.33v2.35h3.46v-15H10v8.42ZM21.05,43a2.13,2.13,0,0,1,.85-1.69,3.69,3.69,0,0,1,2.38-.69,7.32,7.32,0,0,1,2.7.52,12.5,12.5,0,0,1,2.69,1.52l1.87-2.64a11.6,11.6,0,0,0-3.27-1.85,11.29,11.29,0,0,0-3.93-.64,8.65,8.65,0,0,0-2.71.41,6,6,0,0,0-2.13,1.18A5.42,5.42,0,0,0,18.1,41,6.16,6.16,0,0,0,18,45.69a4.44,4.44,0,0,0,1.28,1.64,6.92,6.92,0,0,0,2.07,1.14,25.78,25.78,0,0,0,2.83.82c.92.23,1.67.44,2.26.65a5.93,5.93,0,0,1,1.36.67,1.83,1.83,0,0,1,.68.78,2.42,2.42,0,0,1,.18,1,2.15,2.15,0,0,1-.94,1.84,4.37,4.37,0,0,1-2.57.68,8.06,8.06,0,0,1-3.34-.66,12.23,12.23,0,0,1-2.92-1.92l-2.1,2.5a12.18,12.18,0,0,0,3.88,2.39,12.55,12.55,0,0,0,4.4.78,9.6,9.6,0,0,0,2.86-.4,6.26,6.26,0,0,0,2.22-1.16,5.33,5.33,0,0,0,1.45-1.87A5.82,5.82,0,0,0,32.16,52a5.38,5.38,0,0,0-.41-2.17,4.59,4.59,0,0,0-1.21-1.61,6.78,6.78,0,0,0-2-1.18,23.35,23.35,0,0,0-2.77-.88c-.95-.22-1.73-.44-2.35-.65A5.71,5.71,0,0,1,22,44.84a2.07,2.07,0,0,1-.73-.79,2.47,2.47,0,0,1-.2-1Zm24.63,8.11a3.8,3.8,0,0,1-.93,2.73,3.18,3.18,0,0,1-2.42,1,2.91,2.91,0,0,1-2.34-1,3.9,3.9,0,0,1-.83-2.69V42.72H35.7v9.52a6.11,6.11,0,0,0,1.39,4.19A5,5,0,0,0,41,58a4.77,4.77,0,0,0,2.82-.79,7.26,7.26,0,0,0,1.84-1.87v2.35h3.45v-15H45.68v8.42Zm23.23-.94a8.78,8.78,0,0,0-.59-3.32,7.75,7.75,0,0,0-1.57-2.45,6.52,6.52,0,0,0-2.22-1.52A6.73,6.73,0,0,0,62,42.4a5.37,5.37,0,0,0-3,.81,7.58,7.58,0,0,0-2,2V42.72H53.44V62.21H56.9l0-6.86a7.75,7.75,0,0,0,2,1.84,5.48,5.48,0,0,0,3.06.8,6.83,6.83,0,0,0,2.59-.51A6.5,6.5,0,0,0,66.77,56a7.56,7.56,0,0,0,1.56-2.45,8.77,8.77,0,0,0,.58-3.31Zm-3.45,0a5.69,5.69,0,0,1-.34,2,4.63,4.63,0,0,1-.93,1.52,4.1,4.1,0,0,1-3,1.3,4.09,4.09,0,0,1-1.67-.34,4,4,0,0,1-1.39-1,4.72,4.72,0,0,1-.95-1.52,5.65,5.65,0,0,1,0-4,4.67,4.67,0,0,1,.95-1.51,4,4,0,0,1,1.39-1,4.09,4.09,0,0,1,1.67-.34,4,4,0,0,1,1.65.34,4.1,4.1,0,0,1,1.36,1,4.63,4.63,0,0,1,.93,1.52,5.7,5.7,0,0,1,.34,2Zm22.44,0a8.59,8.59,0,0,0-.6-3.32,7.42,7.42,0,0,0-1.57-2.45,6.48,6.48,0,0,0-2.21-1.52,6.74,6.74,0,0,0-2.58-.51,5.33,5.33,0,0,0-3,.81,7.61,7.61,0,0,0-2,2V42.72H72.43V62.21h3.45l0-6.86a7.64,7.64,0,0,0,2,1.84,5.48,5.48,0,0,0,3.06.8,6.83,6.83,0,0,0,2.59-.51A6.5,6.5,0,0,0,85.76,56a7.56,7.56,0,0,0,1.56-2.45,9,9,0,0,0,.58-3.31Zm-3.46,0a5.47,5.47,0,0,1-.34,2,4.61,4.61,0,0,1-.92,1.52,4.1,4.1,0,0,1-3,1.3,4.16,4.16,0,0,1-1.67-.34,4.06,4.06,0,0,1-1.39-1,5.09,5.09,0,0,1-.95-1.52,5.8,5.8,0,0,1,0-4,5,5,0,0,1,.95-1.51,4.09,4.09,0,0,1,1.39-1,4.16,4.16,0,0,1,1.67-.34,4,4,0,0,1,1.66.34,4.2,4.2,0,0,1,1.36,1,4.61,4.61,0,0,1,.92,1.52,5.48,5.48,0,0,1,.34,2Zm22.1,0a7.92,7.92,0,0,0-.59-3,7.77,7.77,0,0,0-1.66-2.48A8,8,0,0,0,101.77,43a8.35,8.35,0,0,0-3.19-.61,8,8,0,0,0-3.19.63,7.84,7.84,0,0,0-2.52,1.68,7.79,7.79,0,0,0,0,11,8,8,0,0,0,2.52,1.67,8.27,8.27,0,0,0,3.16.61,8.1,8.1,0,0,0,3.21-.63,7.74,7.74,0,0,0,4.2-4.16,7.56,7.56,0,0,0,.61-3Zm-3.45,0a5.42,5.42,0,0,1-.32,1.86,4.41,4.41,0,0,1-.89,1.51,4.46,4.46,0,0,1-1.42,1,4.57,4.57,0,0,1-1.88.38,4.39,4.39,0,0,1-1.82-.38,4.5,4.5,0,0,1-1.43-1,4.37,4.37,0,0,1-.94-1.54,5.14,5.14,0,0,1-.34-1.88,5.42,5.42,0,0,1,.31-1.86,4.32,4.32,0,0,1,.9-1.52,4.22,4.22,0,0,1,1.42-1,4.42,4.42,0,0,1,1.84-.38,4.47,4.47,0,0,1,1.85.38,4.38,4.38,0,0,1,1.44,1.05,5,5,0,0,1,.94,1.54,5.3,5.3,0,0,1,.34,1.87ZM113.49,52a8.44,8.44,0,0,1,.36-2.59,5.08,5.08,0,0,1,1.05-1.86,4.21,4.21,0,0,1,1.62-1.1,5.47,5.47,0,0,1,2.06-.37h.2V42.43a4.84,4.84,0,0,0-3.28.94,6.51,6.51,0,0,0-2,2.72V42.72H110v15h3.46V52Zm12.41-6.35h4V42.72h-4V38.61h-3.46v4.11h-1.9v2.91h1.9v7.9a6,6,0,0,0,.31,2.09,3.41,3.41,0,0,0,.9,1.35,3.72,3.72,0,0,0,1.39.74,6.35,6.35,0,0,0,1.73.22,6.2,6.2,0,0,0,1.7-.2,5.86,5.86,0,0,0,1.39-.56V54.36a4.69,4.69,0,0,1-2.12.51,1.9,1.9,0,0,1-1.36-.44A1.85,1.85,0,0,1,125.9,53Z" style="fill:#000029;fill-rule:evenodd"/></g></g></svg>